<svg version="1.1" id="Слой_1" xmlns="http://www.w3.org/2000/svg" xmlns:xlink="http://www.w3.org/1999/xlink" x="0px" y="0px"
	 viewBox="0 0 220 30" enable-background="new 0 0 220 30" xml:space="preserve">
<rect y="-0.1" fill="#3871D3" width="220" height="30"/>
<text transform="matrix(1 0 0 1 3.2959 25.52)" fill="#FFFFFF" font-family="'Intro'" font-size="26">альянс стр   й</text>
<g id="worker">
	<path fill="#FF931E" d="M189.4,28c5.1,0,9.3-4.1,9.3-9.2h-18.5C180.1,23.9,184.3,28,189.4,28z"/>
	<path fill="#FF931E" d="M200.2,16.2c0,0.7-0.3,1.3-0.8,1.3h-20.1c-0.4,0-0.8-0.6-0.8-1.3l0,0c0-0.7,0.3-1.3,0.8-1.3h20.1
		C199.8,14.9,200.2,15.5,200.2,16.2L200.2,16.2z"/>
	<path fill="#FF931E" d="M194.4,6.3l-1.3,3.1c-0.2,0.4-0.7,0.6-1.1,0.4c-0.4-0.2-0.6-0.7-0.4-1.1l1-2.4c0.2-0.5,0-1.2-0.6-1.4
		c-0.8-0.3-1.6-0.4-2.5-0.4c-0.8,0-1.6,0.1-2.4,0.4c-0.6,0.2-0.9,0.8-0.6,1.4l1,2.4c0.2,0.4,0,0.9-0.4,1.1c-0.4,0.2-0.9,0-1.1-0.4
		l-1.4-3.2c-2.7,1.9-4.4,5.4-4.4,8.7h18.5C198.6,11.7,197,8.3,194.4,6.3z"/>
</g>
</svg>
