<?xml version="1.0" encoding="utf-8"?>
<!-- Generator: Adobe Illustrator 17.1.0, SVG Export Plug-In . SVG Version: 6.00 Build 0)  -->
<!DOCTYPE svg PUBLIC "-//W3C//DTD SVG 1.1//EN" "http://www.w3.org/Graphics/SVG/1.1/DTD/svg11.dtd">
<svg version="1.1" id="Слой_1" xmlns="http://www.w3.org/2000/svg" xmlns:xlink="http://www.w3.org/1999/xlink" x="0px" y="0px"
	 viewBox="0 214.1 220 40" enable-background="new 0 214.1 220 40" xml:space="preserve">
<rect y="214.1" fill="#3871D3" width="220" height="40"/>
<text transform="matrix(1 0 0 1 3.281 244.6192)" fill="#FFFFFF" font-family="'Intro'" font-size="25.8887">альянс стр   й</text>
<g id="worker">
	<path fill="#FF931E" d="M188.6,247.1c5.1,0,9.3-4.1,9.3-9.2h-18.4C179.3,243,183.5,247.1,188.6,247.1z"/>
	<path fill="#FF931E" d="M199.3,235.3c0,0.7-0.3,1.3-0.8,1.3h-20c-0.4,0-0.8-0.6-0.8-1.3l0,0c0-0.7,0.3-1.3,0.8-1.3h20
		C198.9,234,199.3,234.6,199.3,235.3L199.3,235.3z"/>
	<path fill="#FF931E" d="M193.6,225.5l-1.3,3.1c-0.2,0.4-0.7,0.6-1.1,0.4c-0.4-0.2-0.6-0.7-0.4-1.1l1-2.4c0.2-0.5,0-1.2-0.6-1.4
		c-0.8-0.3-1.6-0.4-2.5-0.4c-0.8,0-1.6,0.1-2.4,0.4c-0.6,0.2-0.9,0.8-0.6,1.4l1,2.4c0.2,0.4,0,0.9-0.4,1.1c-0.4,0.2-0.9,0-1.1-0.4
		l-1.4-3.2c-2.7,1.9-4.4,5.4-4.4,8.7h18.4C197.7,230.9,196.2,227.5,193.6,225.5z"/>
</g>
</svg>
