<?xml version="1.0" encoding="utf-8"?>
<!-- Generator: Adobe Illustrator 17.1.0, SVG Export Plug-In . SVG Version: 6.00 Build 0)  -->
<!DOCTYPE svg PUBLIC "-//W3C//DTD SVG 1.1//EN" "http://www.w3.org/Graphics/SVG/1.1/DTD/svg11.dtd">
<svg version="1.1" id="Слой_1" xmlns="http://www.w3.org/2000/svg" xmlns:xlink="http://www.w3.org/1999/xlink" x="0px" y="0px"
	 viewBox="0 0 500 500" enable-background="new 0 0 500 500" xml:space="preserve">
<circle id="intro_circle" fill="none" stroke="#3871D3" stroke-width="3" stroke-miterlimit="10" cx="250" cy="250" r="214.3"/>
<rect id="Контур_figur" x="135" y="135" display="none" fill="none" stroke="#00FF00" stroke-miterlimit="10" width="229.6" height="229.6"/>
<g id="голова">
	<path fill="#3871D3" d="M305.7,189.3H300c-3.2-18.6-12.5-35.7-25.7-45.4l-4.3,24.6c-0.4,2.5-2.9,4.3-5.4,3.9
		c-2.5-0.4-4.3-2.9-3.9-5.4l4.6-25c0.4-1.8-0.7-3.6-2.5-3.9c-3.6-1.1-9.3-1.8-12.9-1.8c-3.9,0-9.6,0.7-13.2,1.8
		c-1.8,0.7-2.9,2.1-2.5,3.9l4.6,25c0.4,2.5-1.4,5-3.9,5.4c-2.5,0.4-5-1.4-5.4-3.9l-4.3-24.3c-12.9,9.6-22.1,26.8-25.4,45h-5.7
		c-3.6,0-6.4,2.9-6.4,6.8c0,3.9,2.9,6.8,6.4,6.8h111.4c3.6,0,6.4-2.9,6.4-6.8C312.1,192.1,309.3,189.3,305.7,189.3z"/>
	<path fill="#3871D3" d="M301.4,212.9c-0.4,0-0.4,0-0.7,0l0,0H199.3l0,0c-0.4,0-0.7-0.4-0.7,0c-1.8,0.7-1.4,6.8,1.1,13.9
		c2.5,7.1,5.7,12.5,7.5,11.8l0,0c9.3,24.3,21.8,40.7,42.9,40.7c20.7,0,34.3-17.9,43.2-40.7c1.8,0,5-5,7.1-11.8
		C302.9,219.6,303.2,213.2,301.4,212.9z"/>
</g>
<path fill="#347AE0" d="M186.8,340.4v-46.4c-2.1,0.7-4.6,1.1-6.4,1.4c-7.1,1.4-15.7,1.4-19.3,7.5c-6.8,11.4-13.2,43.6-8.2,48.6
	c10.7,11.4,0.7,3.6,15.4,11.8c0.7,0.4,1.1,0.7,1.8,1.1l0,0c-0.4-0.4-1.1-0.4-1.1-0.4h1.1C169.6,352.5,176.8,343.2,186.8,340.4z"/>
<g>
	<path fill="#347AE0" d="M338.6,304.6c-1.8-2.1-2.9-7.1-20.7-9.3c-1.8-0.4-3.2-0.4-4.6-0.7V340c10,3.2,17.1,12.5,17.1,23.2l0,0l0,0
		c0,0,14.6-6.4,16.4-13.6S345,312.1,338.6,304.6z"/>
	<path fill="#347AE0" d="M292.1,286.1l-10-7.1c-2.9,3.9-2.9,11.4-32.1,12.5s-32.1-12.5-32.1-12.5c-6.4,4.6-7.9,5.4-10,6.8v53.6h84.3
		V286.1z"/>
</g>
</svg>
