<?xml version="1.0" encoding="utf-8"?>
<!-- Generator: Adobe Illustrator 17.1.0, SVG Export Plug-In . SVG Version: 6.00 Build 0)  -->
<!DOCTYPE svg PUBLIC "-//W3C//DTD SVG 1.1//EN" "http://www.w3.org/Graphics/SVG/1.1/DTD/svg11.dtd">
<svg version="1.1" id="Слой_1" xmlns="http://www.w3.org/2000/svg" xmlns:xlink="http://www.w3.org/1999/xlink" x="0px" y="0px"
	 viewBox="0 0 140 140" enable-background="new 0 0 140 140" xml:space="preserve">
<circle id="out_circle" fill="#E4EEFE" cx="70" cy="70" r="70"/>
<circle id="intro_circle" fill="none" stroke="#85AAE9" stroke-width="3" stroke-miterlimit="10" cx="70" cy="70" r="60"/>
<rect id="Контур_figur" x="37.8" y="37.8" display="none" fill="none" stroke="#00FF00" stroke-miterlimit="10" width="64.3" height="64.3"/>
<g id="голова">
	<path fill="#3871D3" d="M85.6,53h-1.6c-0.9-5.2-3.5-10-7.2-12.7l-1.2,6.9c-0.1,0.7-0.8,1.2-1.5,1.1c-0.7-0.1-1.2-0.8-1.1-1.5l1.3-7
		c0.1-0.5-0.2-1-0.7-1.1c-1-0.3-2.6-0.5-3.6-0.5c-1.1,0-2.7,0.2-3.7,0.5c-0.5,0.2-0.8,0.6-0.7,1.1l1.3,7c0.1,0.7-0.4,1.4-1.1,1.5
		c-0.7,0.1-1.4-0.4-1.5-1.1l-1.2-6.8c-3.6,2.7-6.2,7.5-7.1,12.6h-1.6c-1,0-1.8,0.8-1.8,1.9s0.8,1.9,1.8,1.9h31.2
		c1,0,1.8-0.8,1.8-1.9S86.6,53,85.6,53z"/>
	<path fill="#3871D3" d="M84.4,59.6c-0.1,0-0.1,0-0.2,0c0,0,0,0,0,0H55.8c0,0,0,0,0,0c-0.1,0-0.2-0.1-0.2,0
		c-0.5,0.2-0.4,1.9,0.3,3.9c0.7,2,1.6,3.5,2.1,3.3c0,0,0,0,0,0c2.6,6.8,6.1,11.4,12,11.4c5.8,0,9.6-5,12.1-11.4c0.5,0,1.4-1.4,2-3.3
		C84.8,61.5,84.9,59.7,84.4,59.6z"/>
</g>
<path fill="#347AE0" d="M52.3,95.3v-13c-0.6,0.2-1.3,0.3-1.8,0.4c-2,0.4-4.4,0.4-5.4,2.1C43.2,88,41.4,97,42.8,98.4
	c3,3.2,0.2,1,4.3,3.3c0.2,0.1,0.3,0.2,0.5,0.3c0,0,0,0,0,0c-0.1-0.1-0.3-0.1-0.3-0.1l0.3,0C47.5,98.7,49.5,96.1,52.3,95.3z"/>
<g>
	<path fill="#347AE0" d="M94.8,85.3c-0.5-0.6-0.8-2-5.8-2.6c-0.5-0.1-0.9-0.1-1.3-0.2v12.7c2.8,0.9,4.8,3.5,4.8,6.5c0,0,0,0,0,0h0
		c0,0,4.1-1.8,4.6-3.8S96.6,87.4,94.8,85.3z"/>
	<path fill="#347AE0" d="M81.8,80.1l-2.8-2c-0.8,1.1-0.8,3.2-9,3.5c-8.2,0.3-9-3.5-9-3.5c-1.8,1.3-2.2,1.5-2.8,1.9V95h23.6V80.1z"/>
</g>
</svg>
