<?xml version="1.0" encoding="utf-8"?>
<!-- Generator: Adobe Illustrator 17.1.0, SVG Export Plug-In . SVG Version: 6.00 Build 0)  -->
<!DOCTYPE svg PUBLIC "-//W3C//DTD SVG 1.1//EN" "http://www.w3.org/Graphics/SVG/1.1/DTD/svg11.dtd">
<svg version="1.1" xmlns="http://www.w3.org/2000/svg" xmlns:xlink="http://www.w3.org/1999/xlink" x="0px" y="0px"
	 viewBox="0 0 75 50" enable-background="new 0 0 75 50" xml:space="preserve">
<g id="phone">
	<path fill="#3871D3" d="M61.9,40.1c0,5.5-4.4,9.9-9.9,9.9c-21.9,0-39.6-17.7-39.6-39.6c0-5.5,4.4-9.9,9.9-9.9
		c0.6,0,1.2,0.1,1.8,0.2C24.7,0.8,25.4,1,26,1.2l3.7,15.5L24.1,20c0,0,0,0.1,0,0.1c2.9,8.5,9.6,15.2,18.1,18.3
		c0.1,0,0.1,0.1,0.2,0.1l3.2-5.7l15.4,3.4c0.3,0.7,0.6,1.5,0.7,2.3C61.8,39,61.9,39.6,61.9,40.1z"/>
</g>
<g id="mail">
</g>
</svg>
