<?xml version="1.0" encoding="utf-8"?>
<!-- Generator: Adobe Illustrator 17.1.0, SVG Export Plug-In . SVG Version: 6.00 Build 0)  -->
<!DOCTYPE svg PUBLIC "-//W3C//DTD SVG 1.1//EN" "http://www.w3.org/Graphics/SVG/1.1/DTD/svg11.dtd">
<svg version="1.1" id="Слой_1" xmlns="http://www.w3.org/2000/svg" xmlns:xlink="http://www.w3.org/1999/xlink" x="0px" y="0px"
	 viewBox="56.3 302.9 544 544" enable-background="new 56.3 302.9 544 544" xml:space="preserve">
<circle fill="#FFFFFF" stroke="#4ACB8D" stroke-width="5" stroke-miterlimit="10" cx="328.3" cy="574.9" r="269.5"/>
<circle fill="#4ACB8D" cx="331.2" cy="574.9" r="218.5"/>
<g>
	<path fill="#FFFFFF" d="M228.3,441.4c11.3-9.5,40.2-14.7,39.9-9.2c0,5.5,34.7,69.4,34.4,74.8c0,5.5-29.5,27.7-35.3,32.9
		c-5.8,4.9,32.4,55.8,33.2,56.6s45.1,46.8,50.6,41.6c5.8-4.9,35.3-27.5,40.7-26.6c5.5,0.9,66.2,45.1,71.7,45.9
		c5.5,0.6-9.8,25.4-21.1,35c-9.5,8.4-57.8,37-132.9-26.9c-8.4-5.5-21.1-18.5-40.5-41l0,0l0,0l0,0l0,0
		c-19.4-22.5-29.8-37.3-34.1-46.8C182.9,493.1,218.5,449.5,228.3,441.4z"/>
</g>
</svg>
