<?xml version="1.0" encoding="utf-8"?>
<!-- Generator: Adobe Illustrator 21.1.0, SVG Export Plug-In . SVG Version: 6.00 Build 0)  -->
<svg version="1.1" id="Слой_1" xmlns="http://www.w3.org/2000/svg" xmlns:xlink="http://www.w3.org/1999/xlink" x="0px" y="0px"
	 viewBox="0 0 45 45" style="enable-background:new 0 0 45 45;" xml:space="preserve">
<style type="text/css">
	.st0{fill:#3871D3;}
</style>
<g id="phone_1_">
	<path class="st0" d="M28.9,22.5v-3.2h-3.2v3.2h-6.4v-3.2h-3.2v3.2L1.6,31.2C0.6,31.8,0,32.8,0,34v7.8C0,43.6,1.4,45,3.2,45h38.6
		c1.8,0,3.2-1.4,3.2-3.2V34c0-1.1-0.6-2.2-1.6-2.8L28.9,22.5z M19.3,38.6h-3.2v-3.2h3.2V38.6z M19.3,32.1h-3.2v-3.2h3.2V32.1z
		 M28.9,38.6h-3.2v-3.2h3.2V38.6z M28.9,32.1h-3.2v-3.2h3.2V32.1z"/>
	<path class="st0" d="M12.9,16.8V9.6c0,0,3.2-3.2,9.6-3.2s9.6,3.2,9.6,3.2v7.1c0,1.5,1,2.8,2.4,3.1l6.4,1.6c2,0.5,4-1,4-3.1v-7.8
		c0-2.6-1.5-4.9-3.9-5.9C36.5,2.8,28.8,0,22.5,0S8.5,2.8,3.9,4.7C1.5,5.7,0,8,0,10.6v7.8c0,2.1,2,3.6,4,3.1l6.4-1.6
		C11.9,19.5,12.9,18.3,12.9,16.8z"/>
</g>
</svg>
