<?xml version="1.0" encoding="utf-8"?>
<!-- Generator: Adobe Illustrator 17.1.0, SVG Export Plug-In . SVG Version: 6.00 Build 0)  -->
<!DOCTYPE svg PUBLIC "-//W3C//DTD SVG 1.1//EN" "http://www.w3.org/Graphics/SVG/1.1/DTD/svg11.dtd">
<svg version="1.1" id="Слой_1" xmlns="http://www.w3.org/2000/svg" xmlns:xlink="http://www.w3.org/1999/xlink" x="0px" y="0px"
	 viewBox="0 0 500 500" enable-background="new 0 0 500 500" xml:space="preserve">
<circle id="внутр._круг" fill="none" stroke="#3871D3" stroke-width="3" stroke-miterlimit="10" cx="250" cy="250" r="196.4"/>
<g>
	<path id="сертификат" fill="none" stroke="#3871D3" stroke-width="3" stroke-miterlimit="10" d="M301.8,355.4H176.4
		c-3.9,0-7.1-3.2-7.1-7.1V163.9c0-3.9,3.2-7.1,7.1-7.1h125.4c3.9,0,6.8,3.2,6.8,7.1v184.6C308.6,352.1,305.4,355.4,301.8,355.4z"/>
	<path fill="#3871D3" d="M275,172.5h-71.8c-2.1,0-3.6-1.4-3.6-3.6v-24.3c0-2.1,1.4-3.6,3.6-3.6H275c2.1,0,3.6,1.4,3.6,3.6v24.3
		C278.6,170.7,276.8,172.5,275,172.5z"/>
	<circle fill="#3871D3" cx="238.9" cy="144.6" r="15.7"/>
	<path fill="#3871D3" d="M284.6,212.9c0,1.8-1.4,3.2-3.2,3.2h-85c-1.8,0-3.2-1.4-3.2-3.2l0,0c0-1.8,1.4-3.2,3.2-3.2h85
		C283.2,210,284.6,211.4,284.6,212.9L284.6,212.9z"/>
	<path fill="#3871D3" d="M284.6,245c0,1.8-1.4,3.2-3.2,3.2h-85c-1.8,0-3.2-1.4-3.2-3.2l0,0c0-1.8,1.4-3.2,3.2-3.2h85
		C283.2,242.1,284.6,243.6,284.6,245L284.6,245z"/>
	<path fill="#3871D3" d="M284.6,277.1c0,1.8-1.4,3.2-3.2,3.2h-85c-1.8,0-3.2-1.4-3.2-3.2l0,0c0-1.8,1.4-3.2,3.2-3.2h85
		C283.2,274.3,284.6,275.7,284.6,277.1L284.6,277.1z"/>
	<path fill="#3871D3" d="M284.6,309.3c0,1.8-1.4,3.2-3.2,3.2h-85c-1.8,0-3.2-1.4-3.2-3.2l0,0c0-1.8,1.4-3.2,3.2-3.2h85
		C283.2,306.4,284.6,307.9,284.6,309.3L284.6,309.3z"/>
	<g>
		<path fill="#3871D3" d="M354.3,317.1c0,5.7-5,10.7-6.8,16.1s-0.7,12.5-3.9,17.1c-3.2,4.6-10.4,5.7-15,8.9s-7.9,9.6-13.2,11.4
			s-11.4-1.4-17.5-1.4c-5.7,0-12.1,3.2-17.5,1.4s-8.6-8.2-13.2-11.4c-4.6-3.2-11.8-4.3-15-8.9s-2.1-11.4-3.9-17.1
			c-1.8-5.4-6.8-10.4-6.8-16.1s5-10.7,6.8-16.1s0.7-12.5,3.9-17.1s10.4-5.7,15-8.9c4.6-3.2,7.9-9.6,13.2-11.4s11.4,1.4,17.5,1.4
			c5.7,0,12.1-3.2,17.5-1.4s8.6,8.2,13.2,11.4c4.6,3.2,11.8,4.3,15,8.9s2.1,11.4,3.9,17.1C348.9,306.1,354.3,311.1,354.3,317.1z"/>
		<path fill="none" stroke="#E4EEFE" stroke-width="3" stroke-miterlimit="10" d="M354.3,317.1c0,5.7-5,10.7-6.8,16.1
			s-0.7,12.5-3.9,17.1c-3.2,4.6-10.4,5.7-15,8.9s-7.9,9.6-13.2,11.4s-11.4-1.4-17.5-1.4c-5.7,0-12.1,3.2-17.5,1.4
			s-8.6-8.2-13.2-11.4c-4.6-3.2-11.8-4.3-15-8.9s-2.1-11.4-3.9-17.1c-1.8-5.4-6.8-10.4-6.8-16.1s5-10.7,6.8-16.1s0.7-12.5,3.9-17.1
			s10.4-5.7,15-8.9c4.6-3.2,7.9-9.6,13.2-11.4s11.4,1.4,17.5,1.4c5.7,0,12.1-3.2,17.5-1.4s8.6,8.2,13.2,11.4
			c4.6,3.2,11.8,4.3,15,8.9s2.1,11.4,3.9,17.1C348.9,306.1,354.3,311.1,354.3,317.1z"/>
	</g>
	<path fill="#E4EEFE" d="M299.3,294.6l6.8,10.4c0.4,0.4,0.4,0.4,0.7,0.7l12.1,3.2c1.1,0.4,1.4,1.4,0.7,2.5l-7.9,9.6
		c-0.4,0.4-0.4,0.7-0.4,1.1l0.7,12.5c0,1.1-1.1,1.8-2.1,1.4l-11.8-4.3c-0.4,0-0.7,0-1.1,0l-11.4,3.9c-1.1,0.4-2.1-0.4-2.1-1.4
		l0.7-12.5c0-0.4,0-0.7-0.4-1.1l-7.9-9.6c-0.7-0.7-0.4-2.1,0.7-2.5l12.1-3.2c0.4,0,0.7-0.4,0.7-0.7l6.8-10.4
		C297.1,293.6,298.6,293.6,299.3,294.6z"/>
</g>
</svg>
