<?xml version="1.0" encoding="utf-8"?>
<!-- Generator: Adobe Illustrator 17.1.0, SVG Export Plug-In . SVG Version: 6.00 Build 0)  -->
<!DOCTYPE svg PUBLIC "-//W3C//DTD SVG 1.1//EN" "http://www.w3.org/Graphics/SVG/1.1/DTD/svg11.dtd">
<svg version="1.1" id="Слой_1" xmlns="http://www.w3.org/2000/svg" xmlns:xlink="http://www.w3.org/1999/xlink" x="0px" y="0px"
	 viewBox="0 0 140 140" enable-background="new 0 0 140 140" xml:space="preserve">
<circle id="наруж._круг" fill="#E4EEFE" cx="70" cy="70" r="70"/>
<circle id="внутр._круг" fill="none" stroke="#3871D3" stroke-width="3" stroke-miterlimit="10" cx="70" cy="70" r="55"/>
<g>
	<path id="сертификат" fill="none" stroke="#3871D3" stroke-width="2" stroke-miterlimit="10" d="M84.5,99.5H49.4
		c-1.1,0-2-0.9-2-2V45.9c0-1.1,0.9-2,2-2h35.1c1.1,0,1.9,0.9,1.9,2v51.7C86.4,98.6,85.5,99.5,84.5,99.5z"/>
	<path fill="#3871D3" d="M77,48.3H56.9c-0.6,0-1-0.4-1-1v-6.8c0-0.6,0.4-1,1-1H77c0.6,0,1,0.4,1,1v6.8C78,47.8,77.5,48.3,77,48.3z"
		/>
	<circle fill="#3871D3" cx="66.9" cy="40.5" r="4.4"/>
	<path fill="#3871D3" d="M79.7,59.6c0,0.5-0.4,0.9-0.9,0.9H55c-0.5,0-0.9-0.4-0.9-0.9l0,0c0-0.5,0.4-0.9,0.9-0.9h23.8
		C79.3,58.8,79.7,59.2,79.7,59.6L79.7,59.6z"/>
	<path fill="#3871D3" d="M79.7,68.6c0,0.5-0.4,0.9-0.9,0.9H55c-0.5,0-0.9-0.4-0.9-0.9l0,0c0-0.5,0.4-0.9,0.9-0.9h23.8
		C79.3,67.8,79.7,68.2,79.7,68.6L79.7,68.6z"/>
	<path fill="#3871D3" d="M79.7,77.6c0,0.5-0.4,0.9-0.9,0.9H55c-0.5,0-0.9-0.4-0.9-0.9l0,0c0-0.5,0.4-0.9,0.9-0.9h23.8
		C79.3,76.8,79.7,77.2,79.7,77.6L79.7,77.6z"/>
	<path fill="#3871D3" d="M79.7,86.6c0,0.5-0.4,0.9-0.9,0.9H55c-0.5,0-0.9-0.4-0.9-0.9l0,0c0-0.5,0.4-0.9,0.9-0.9h23.8
		C79.3,85.8,79.7,86.2,79.7,86.6L79.7,86.6z"/>
	<g>
		<path fill="#3871D3" d="M99.2,88.8c0,1.6-1.4,3-1.9,4.5c-0.5,1.5-0.2,3.5-1.1,4.8c-0.9,1.3-2.9,1.6-4.2,2.5
			c-1.3,0.9-2.2,2.7-3.7,3.2c-1.5,0.5-3.2-0.4-4.9-0.4c-1.6,0-3.4,0.9-4.9,0.4c-1.5-0.5-2.4-2.3-3.7-3.2c-1.3-0.9-3.3-1.2-4.2-2.5
			c-0.9-1.3-0.6-3.2-1.1-4.8c-0.5-1.5-1.9-2.9-1.9-4.5c0-1.6,1.4-3,1.9-4.5c0.5-1.5,0.2-3.5,1.1-4.8c0.9-1.3,2.9-1.6,4.2-2.5
			c1.3-0.9,2.2-2.7,3.7-3.2c1.5-0.5,3.2,0.4,4.9,0.4c1.6,0,3.4-0.9,4.9-0.4c1.5,0.5,2.4,2.3,3.7,3.2c1.3,0.9,3.3,1.2,4.2,2.5
			c0.9,1.3,0.6,3.2,1.1,4.8C97.7,85.7,99.2,87.1,99.2,88.8z"/>
		<path fill="none" stroke="#E4EEFE" stroke-width="3" stroke-miterlimit="10" d="M99.2,88.8c0,1.6-1.4,3-1.9,4.5
			c-0.5,1.5-0.2,3.5-1.1,4.8c-0.9,1.3-2.9,1.6-4.2,2.5c-1.3,0.9-2.2,2.7-3.7,3.2c-1.5,0.5-3.2-0.4-4.9-0.4c-1.6,0-3.4,0.9-4.9,0.4
			c-1.5-0.5-2.4-2.3-3.7-3.2c-1.3-0.9-3.3-1.2-4.2-2.5c-0.9-1.3-0.6-3.2-1.1-4.8c-0.5-1.5-1.9-2.9-1.9-4.5c0-1.6,1.4-3,1.9-4.5
			c0.5-1.5,0.2-3.5,1.1-4.8c0.9-1.3,2.9-1.6,4.2-2.5c1.3-0.9,2.2-2.7,3.7-3.2c1.5-0.5,3.2,0.4,4.9,0.4c1.6,0,3.4-0.9,4.9-0.4
			c1.5,0.5,2.4,2.3,3.7,3.2c1.3,0.9,3.3,1.2,4.2,2.5c0.9,1.3,0.6,3.2,1.1,4.8C97.7,85.7,99.2,87.1,99.2,88.8z"/>
	</g>
	<path fill="#E4EEFE" d="M83.8,82.5l1.9,2.9c0.1,0.1,0.1,0.1,0.2,0.2l3.4,0.9c0.3,0.1,0.4,0.4,0.2,0.7l-2.2,2.7
		c-0.1,0.1-0.1,0.2-0.1,0.3l0.2,3.5c0,0.3-0.3,0.5-0.6,0.4l-3.3-1.2c-0.1,0-0.2,0-0.3,0L80,94c-0.3,0.1-0.6-0.1-0.6-0.4l0.2-3.5
		c0-0.1,0-0.2-0.1-0.3l-2.2-2.7c-0.2-0.2-0.1-0.6,0.2-0.7l3.4-0.9c0.1,0,0.2-0.1,0.2-0.2l1.9-2.9C83.2,82.2,83.6,82.2,83.8,82.5z"/>
</g>
</svg>
