<?xml version="1.0" encoding="utf-8"?>
<!-- Generator: Adobe Illustrator 17.1.0, SVG Export Plug-In . SVG Version: 6.00 Build 0)  -->
<!DOCTYPE svg PUBLIC "-//W3C//DTD SVG 1.1//EN" "http://www.w3.org/Graphics/SVG/1.1/DTD/svg11.dtd">
<svg version="1.1" id="Слой_1" xmlns="http://www.w3.org/2000/svg" xmlns:xlink="http://www.w3.org/1999/xlink" x="0px" y="0px"
	 viewBox="0 0 500 500" enable-background="new 0 0 500 500" xml:space="preserve">
<circle id="intro_circle" fill="none" stroke="#3871D3" stroke-width="3" stroke-miterlimit="10" cx="250" cy="250" r="214.3"/>
<g id="линейка">
	<polygon fill="#3871D3" points="320,181.1 309.6,191.4 286.4,167.9 276.4,178.2 299.6,201.4 289.3,211.4 266.4,188.2 256.1,198.2 
		306.8,248.9 366.1,189.3 315.7,138.9 296.8,157.9 	"/>
	<polygon fill="#3871D3" points="198.6,256.1 188.2,266.4 211.4,289.3 201.4,299.6 178.2,276.4 167.9,286.4 191.1,309.6 
		181.1,319.6 157.9,296.8 138.9,315.7 189.3,366.1 248.9,306.4 	"/>
	
		<rect x="225.9" y="216.7" transform="matrix(0.7071 -0.7071 0.7071 0.7071 -104.5561 252.501)" fill="#3871D3" width="53.2" height="71.4"/>
</g>
<g id="карандаш">
	<path fill="#3871D3" d="M358.6,308.6l-0.7-0.7l-50.7,50.4l56.4,5.7L358.6,308.6z M349.6,330.7l2.1,21.1l-21.1-2.1L349.6,330.7z"/>
	<path fill="#3871D3" d="M178.9,138.6l-40.4,40.4c-2.9,2.9-2.9,7.1,0,10l13.6,13.6l50.4-50.4l-13.6-13.6
		C186.1,135.7,181.8,135.7,178.9,138.6z"/>
	<polygon fill="#3871D3" points="213.9,163.2 163.2,213.9 307.5,357.9 307.5,357.9 357.9,307.5 	"/>
</g>
</svg>
