<?xml version="1.0" encoding="utf-8"?>
<!-- Generator: Adobe Illustrator 17.1.0, SVG Export Plug-In . SVG Version: 6.00 Build 0)  -->
<!DOCTYPE svg PUBLIC "-//W3C//DTD SVG 1.1//EN" "http://www.w3.org/Graphics/SVG/1.1/DTD/svg11.dtd">
<svg version="1.1" id="Слой_1" xmlns="http://www.w3.org/2000/svg" xmlns:xlink="http://www.w3.org/1999/xlink" x="0px" y="0px"
	 viewBox="0 0 140 140" enable-background="new 0 0 140 140" xml:space="preserve">
<circle id="out_circle" fill="#E4EEFE" cx="70" cy="70" r="70"/>
<circle id="intro_circle" fill="none" stroke="#85AAE9" stroke-width="3" stroke-miterlimit="10" cx="70" cy="70" r="60"/>
<g id="линейка">
	<polygon fill="#3871D3" points="89.6,50.7 86.7,53.6 80.2,47 77.4,49.9 83.9,56.4 81,59.2 74.6,52.7 71.7,55.5 85.9,69.7 102.5,53 
		88.4,38.9 83.1,44.2 	"/>
	<polygon fill="#3871D3" points="55.6,71.7 52.7,74.6 59.2,81 56.4,83.9 49.9,77.4 47,80.2 53.5,86.7 50.7,89.5 44.2,83.1 
		38.9,88.4 53,102.5 69.7,85.8 	"/>
	
		<rect x="63.3" y="60.7" transform="matrix(-0.7071 0.7071 -0.7071 -0.7071 170.7242 70.6537)" fill="#3871D3" width="14.9" height="20"/>
</g>
<g id="карандаш">
	<path fill="#3871D3" d="M100.4,86.4l-0.2-0.2L86,100.3l15.8,1.6L100.4,86.4z M97.9,92.6l0.6,5.9l-5.9-0.6L97.9,92.6z"/>
	<path fill="#3871D3" d="M50.1,38.8L38.8,50.1c-0.8,0.8-0.8,2,0,2.8l3.8,3.8l14.1-14.1l-3.8-3.8C52.1,38,50.9,38,50.1,38.8z"/>
	<polygon fill="#3871D3" points="59.9,45.7 45.7,59.9 86.1,100.2 86.1,100.2 100.2,86.1 	"/>
</g>
</svg>
